G04 #@! TF.FileFunction,Legend,Top*
%FSLAX46Y46*%
G04 Gerber Fmt 4.6, Leading zero omitted, Abs format (unit mm)*
G04 Created by KiCad (PCBNEW 4.0.4-stable) date 01/15/23 21:29:53*
%MOMM*%
%LPD*%
G01*
G04 APERTURE LIST*
%ADD10C,0.100000*%
%ADD11C,0.120000*%
%ADD12C,0.150000*%
G04 APERTURE END LIST*
D10*
D11*
X143829464Y-91236180D02*
G75*
G03X143828600Y-97271482I1179136J-3017820D01*
G01*
X146187736Y-91236180D02*
G75*
G02X146188600Y-97271482I-1179136J-3017820D01*
G01*
X146187736Y-91236180D02*
G75*
G03X143828600Y-91236518I-1179136J-3017820D01*
G01*
X141808600Y-94254000D02*
X148208600Y-94254000D01*
X141808600Y-94214000D02*
X148208600Y-94214000D01*
X141808600Y-94174000D02*
X148208600Y-94174000D01*
X141810600Y-94134000D02*
X148206600Y-94134000D01*
X141811600Y-94094000D02*
X148205600Y-94094000D01*
X141814600Y-94054000D02*
X148202600Y-94054000D01*
X141816600Y-94014000D02*
X148200600Y-94014000D01*
X141820600Y-93974000D02*
X144028600Y-93974000D01*
X145988600Y-93974000D02*
X148196600Y-93974000D01*
X141823600Y-93934000D02*
X144028600Y-93934000D01*
X145988600Y-93934000D02*
X148193600Y-93934000D01*
X141828600Y-93894000D02*
X144028600Y-93894000D01*
X145988600Y-93894000D02*
X148188600Y-93894000D01*
X141832600Y-93854000D02*
X144028600Y-93854000D01*
X145988600Y-93854000D02*
X148184600Y-93854000D01*
X141838600Y-93814000D02*
X144028600Y-93814000D01*
X145988600Y-93814000D02*
X148178600Y-93814000D01*
X141843600Y-93774000D02*
X144028600Y-93774000D01*
X145988600Y-93774000D02*
X148173600Y-93774000D01*
X141850600Y-93734000D02*
X144028600Y-93734000D01*
X145988600Y-93734000D02*
X148166600Y-93734000D01*
X141856600Y-93694000D02*
X144028600Y-93694000D01*
X145988600Y-93694000D02*
X148160600Y-93694000D01*
X141864600Y-93654000D02*
X144028600Y-93654000D01*
X145988600Y-93654000D02*
X148152600Y-93654000D01*
X141871600Y-93614000D02*
X144028600Y-93614000D01*
X145988600Y-93614000D02*
X148145600Y-93614000D01*
X141880600Y-93574000D02*
X144028600Y-93574000D01*
X145988600Y-93574000D02*
X148136600Y-93574000D01*
X141889600Y-93533000D02*
X144028600Y-93533000D01*
X145988600Y-93533000D02*
X148127600Y-93533000D01*
X141898600Y-93493000D02*
X144028600Y-93493000D01*
X145988600Y-93493000D02*
X148118600Y-93493000D01*
X141908600Y-93453000D02*
X144028600Y-93453000D01*
X145988600Y-93453000D02*
X148108600Y-93453000D01*
X141918600Y-93413000D02*
X144028600Y-93413000D01*
X145988600Y-93413000D02*
X148098600Y-93413000D01*
X141929600Y-93373000D02*
X144028600Y-93373000D01*
X145988600Y-93373000D02*
X148087600Y-93373000D01*
X141941600Y-93333000D02*
X144028600Y-93333000D01*
X145988600Y-93333000D02*
X148075600Y-93333000D01*
X141953600Y-93293000D02*
X144028600Y-93293000D01*
X145988600Y-93293000D02*
X148063600Y-93293000D01*
X141966600Y-93253000D02*
X144028600Y-93253000D01*
X145988600Y-93253000D02*
X148050600Y-93253000D01*
X141979600Y-93213000D02*
X144028600Y-93213000D01*
X145988600Y-93213000D02*
X148037600Y-93213000D01*
X141993600Y-93173000D02*
X144028600Y-93173000D01*
X145988600Y-93173000D02*
X148023600Y-93173000D01*
X142007600Y-93133000D02*
X144028600Y-93133000D01*
X145988600Y-93133000D02*
X148009600Y-93133000D01*
X142022600Y-93093000D02*
X144028600Y-93093000D01*
X145988600Y-93093000D02*
X147994600Y-93093000D01*
X142038600Y-93053000D02*
X144028600Y-93053000D01*
X145988600Y-93053000D02*
X147978600Y-93053000D01*
X142054600Y-93013000D02*
X144028600Y-93013000D01*
X145988600Y-93013000D02*
X147962600Y-93013000D01*
X142071600Y-92973000D02*
X144028600Y-92973000D01*
X145988600Y-92973000D02*
X147945600Y-92973000D01*
X142089600Y-92933000D02*
X144028600Y-92933000D01*
X145988600Y-92933000D02*
X147927600Y-92933000D01*
X142107600Y-92893000D02*
X144028600Y-92893000D01*
X145988600Y-92893000D02*
X147909600Y-92893000D01*
X142126600Y-92853000D02*
X144028600Y-92853000D01*
X145988600Y-92853000D02*
X147890600Y-92853000D01*
X142145600Y-92813000D02*
X144028600Y-92813000D01*
X145988600Y-92813000D02*
X147871600Y-92813000D01*
X142165600Y-92773000D02*
X144028600Y-92773000D01*
X145988600Y-92773000D02*
X147851600Y-92773000D01*
X142186600Y-92733000D02*
X144028600Y-92733000D01*
X145988600Y-92733000D02*
X147830600Y-92733000D01*
X142208600Y-92693000D02*
X144028600Y-92693000D01*
X145988600Y-92693000D02*
X147808600Y-92693000D01*
X142230600Y-92653000D02*
X144028600Y-92653000D01*
X145988600Y-92653000D02*
X147786600Y-92653000D01*
X142253600Y-92613000D02*
X144028600Y-92613000D01*
X145988600Y-92613000D02*
X147763600Y-92613000D01*
X142277600Y-92573000D02*
X144028600Y-92573000D01*
X145988600Y-92573000D02*
X147739600Y-92573000D01*
X142302600Y-92533000D02*
X144028600Y-92533000D01*
X145988600Y-92533000D02*
X147714600Y-92533000D01*
X142327600Y-92493000D02*
X144028600Y-92493000D01*
X145988600Y-92493000D02*
X147689600Y-92493000D01*
X142354600Y-92453000D02*
X144028600Y-92453000D01*
X145988600Y-92453000D02*
X147662600Y-92453000D01*
X142381600Y-92413000D02*
X144028600Y-92413000D01*
X145988600Y-92413000D02*
X147635600Y-92413000D01*
X142409600Y-92373000D02*
X144028600Y-92373000D01*
X145988600Y-92373000D02*
X147607600Y-92373000D01*
X142438600Y-92333000D02*
X144028600Y-92333000D01*
X145988600Y-92333000D02*
X147578600Y-92333000D01*
X142468600Y-92293000D02*
X144028600Y-92293000D01*
X145988600Y-92293000D02*
X147548600Y-92293000D01*
X142498600Y-92253000D02*
X144028600Y-92253000D01*
X145988600Y-92253000D02*
X147518600Y-92253000D01*
X142530600Y-92213000D02*
X144028600Y-92213000D01*
X145988600Y-92213000D02*
X147486600Y-92213000D01*
X142563600Y-92173000D02*
X144028600Y-92173000D01*
X145988600Y-92173000D02*
X147453600Y-92173000D01*
X142597600Y-92133000D02*
X144028600Y-92133000D01*
X145988600Y-92133000D02*
X147419600Y-92133000D01*
X142633600Y-92093000D02*
X144028600Y-92093000D01*
X145988600Y-92093000D02*
X147383600Y-92093000D01*
X142669600Y-92053000D02*
X144028600Y-92053000D01*
X145988600Y-92053000D02*
X147347600Y-92053000D01*
X142707600Y-92013000D02*
X147309600Y-92013000D01*
X142746600Y-91973000D02*
X147270600Y-91973000D01*
X142786600Y-91933000D02*
X147230600Y-91933000D01*
X142828600Y-91893000D02*
X147188600Y-91893000D01*
X142871600Y-91853000D02*
X147145600Y-91853000D01*
X142916600Y-91813000D02*
X147100600Y-91813000D01*
X142963600Y-91773000D02*
X147053600Y-91773000D01*
X143011600Y-91733000D02*
X147005600Y-91733000D01*
X143062600Y-91693000D02*
X146954600Y-91693000D01*
X143114600Y-91653000D02*
X146902600Y-91653000D01*
X143169600Y-91613000D02*
X146847600Y-91613000D01*
X143227600Y-91573000D02*
X146789600Y-91573000D01*
X143287600Y-91533000D02*
X146729600Y-91533000D01*
X143350600Y-91493000D02*
X146666600Y-91493000D01*
X143417600Y-91453000D02*
X146599600Y-91453000D01*
X143488600Y-91413000D02*
X146528600Y-91413000D01*
X143563600Y-91373000D02*
X146453600Y-91373000D01*
X143644600Y-91333000D02*
X146372600Y-91333000D01*
X143730600Y-91293000D02*
X146286600Y-91293000D01*
X143824600Y-91253000D02*
X146192600Y-91253000D01*
X143927600Y-91213000D02*
X146089600Y-91213000D01*
X144042600Y-91173000D02*
X145974600Y-91173000D01*
X144174600Y-91133000D02*
X145842600Y-91133000D01*
X144332600Y-91093000D02*
X145684600Y-91093000D01*
X144540600Y-91053000D02*
X145476600Y-91053000D01*
X145008600Y-97704000D02*
X145008600Y-96504000D01*
X144358600Y-97104000D02*
X145658600Y-97104000D01*
X159635200Y-90091200D02*
X168435200Y-90091200D01*
X168435200Y-90091200D02*
X168435200Y-99291200D01*
X153735200Y-92791200D02*
X153735200Y-90091200D01*
X153735200Y-90091200D02*
X155635200Y-90091200D01*
X168435200Y-99291200D02*
X153735200Y-99291200D01*
X153735200Y-99291200D02*
X153735200Y-96691200D01*
X82436400Y-86726000D02*
X162716400Y-86726000D01*
X162716400Y-86726000D02*
X162716400Y-50446000D01*
X162716400Y-50446000D02*
X83236400Y-50446000D01*
X82436400Y-50446000D02*
X82436400Y-86726000D01*
X82446400Y-50446000D02*
X83236400Y-50446000D01*
X89076400Y-50086000D02*
X92076400Y-50086000D01*
X90776400Y-61086000D02*
X154276400Y-61086000D01*
X90276680Y-75585320D02*
X90276680Y-61586000D01*
X154277060Y-76086000D02*
X90776400Y-76086000D01*
X154776400Y-61586000D02*
X154776400Y-75586000D01*
X154776400Y-61586000D02*
G75*
G03X154276400Y-61086000I-500000J0D01*
G01*
X154277060Y-76085700D02*
G75*
G03X154777440Y-75585320I0J500380D01*
G01*
X90276680Y-75585320D02*
G75*
G03X90777060Y-76085700I500380J0D01*
G01*
X90777060Y-61084460D02*
G75*
G03X90276680Y-61584840I0J-500380D01*
G01*
X85576400Y-56086000D02*
X158576400Y-56086000D01*
X158576400Y-56086000D02*
X158576400Y-81086000D01*
X158576400Y-81086000D02*
X85576400Y-81086000D01*
X85576400Y-81086000D02*
X85576400Y-56086000D01*
X154441200Y-102251200D02*
X151781200Y-102251200D01*
X154441200Y-115011200D02*
X154441200Y-102251200D01*
X151781200Y-115011200D02*
X151781200Y-102251200D01*
X154441200Y-115011200D02*
X151781200Y-115011200D01*
X154441200Y-116281200D02*
X154441200Y-117611200D01*
X154441200Y-117611200D02*
X153111200Y-117611200D01*
X150351800Y-102302000D02*
X147691800Y-102302000D01*
X150351800Y-115062000D02*
X150351800Y-102302000D01*
X147691800Y-115062000D02*
X147691800Y-102302000D01*
X150351800Y-115062000D02*
X147691800Y-115062000D01*
X150351800Y-116332000D02*
X150351800Y-117662000D01*
X150351800Y-117662000D02*
X149021800Y-117662000D01*
X58124400Y-54517600D02*
X58124400Y-51857600D01*
X40284400Y-54517600D02*
X58124400Y-54517600D01*
X40284400Y-51857600D02*
X58124400Y-51857600D01*
X40284400Y-54517600D02*
X40284400Y-51857600D01*
X39014400Y-54517600D02*
X37684400Y-54517600D01*
X37684400Y-54517600D02*
X37684400Y-53187600D01*
X120075000Y-150809000D02*
X120075000Y-148149000D01*
X102235000Y-150809000D02*
X120075000Y-150809000D01*
X102235000Y-148149000D02*
X120075000Y-148149000D01*
X102235000Y-150809000D02*
X102235000Y-148149000D01*
X100965000Y-150809000D02*
X99635000Y-150809000D01*
X99635000Y-150809000D02*
X99635000Y-149479000D01*
X83676800Y-150326400D02*
X83676800Y-147666400D01*
X78536800Y-150326400D02*
X83676800Y-150326400D01*
X78536800Y-147666400D02*
X83676800Y-147666400D01*
X78536800Y-150326400D02*
X78536800Y-147666400D01*
X77266800Y-150326400D02*
X75936800Y-150326400D01*
X75936800Y-150326400D02*
X75936800Y-148996400D01*
X83372000Y-115426800D02*
X83372000Y-112766800D01*
X78232000Y-115426800D02*
X83372000Y-115426800D01*
X78232000Y-112766800D02*
X83372000Y-112766800D01*
X78232000Y-115426800D02*
X78232000Y-112766800D01*
X76962000Y-115426800D02*
X75632000Y-115426800D01*
X75632000Y-115426800D02*
X75632000Y-114096800D01*
X136134800Y-149081800D02*
X138794800Y-149081800D01*
X136134800Y-146481800D02*
X136134800Y-149081800D01*
X138794800Y-146481800D02*
X138794800Y-149081800D01*
X136134800Y-146481800D02*
X138794800Y-146481800D01*
X136134800Y-145211800D02*
X136134800Y-143881800D01*
X136134800Y-143881800D02*
X137464800Y-143881800D01*
X58563200Y-110677000D02*
X61223200Y-110677000D01*
X58563200Y-105537000D02*
X58563200Y-110677000D01*
X61223200Y-105537000D02*
X61223200Y-110677000D01*
X58563200Y-105537000D02*
X61223200Y-105537000D01*
X58563200Y-104267000D02*
X58563200Y-102937000D01*
X58563200Y-102937000D02*
X59893200Y-102937000D01*
X163585200Y-151698000D02*
X163585200Y-149038000D01*
X145745200Y-151698000D02*
X163585200Y-151698000D01*
X145745200Y-149038000D02*
X163585200Y-149038000D01*
X145745200Y-151698000D02*
X145745200Y-149038000D01*
X144475200Y-151698000D02*
X143145200Y-151698000D01*
X143145200Y-151698000D02*
X143145200Y-150368000D01*
X166734800Y-124349200D02*
X164074800Y-124349200D01*
X166734800Y-142189200D02*
X166734800Y-124349200D01*
X164074800Y-142189200D02*
X164074800Y-124349200D01*
X166734800Y-142189200D02*
X164074800Y-142189200D01*
X166734800Y-143459200D02*
X166734800Y-144789200D01*
X166734800Y-144789200D02*
X165404800Y-144789200D01*
X166531600Y-104842000D02*
X163871600Y-104842000D01*
X166531600Y-117602000D02*
X166531600Y-104842000D01*
X163871600Y-117602000D02*
X163871600Y-104842000D01*
X166531600Y-117602000D02*
X163871600Y-117602000D01*
X166531600Y-118872000D02*
X166531600Y-120202000D01*
X166531600Y-120202000D02*
X165201600Y-120202000D01*
X129441800Y-149627200D02*
X133041800Y-149627200D01*
X129403322Y-149615678D02*
G75*
G02X131241800Y-145177200I1838478J1838478D01*
G01*
X133080278Y-149615678D02*
G75*
G03X131241800Y-145177200I-1838478J1838478D01*
G01*
X71480400Y-57291600D02*
G75*
G03X71480400Y-57291600I-1050000J0D01*
G01*
X65370400Y-52330600D02*
X75490400Y-52330600D01*
X65370400Y-62251600D02*
X75490400Y-62251600D01*
X65370400Y-52330600D02*
X65370400Y-53426600D01*
X65370400Y-56156600D02*
X65370400Y-58426600D01*
X65370400Y-61156600D02*
X65370400Y-62251600D01*
X75490400Y-52330600D02*
X75490400Y-55926600D01*
X75490400Y-58656600D02*
X75490400Y-62251600D01*
X90154000Y-150788000D02*
X94654000Y-150788000D01*
X88904000Y-146788000D02*
X88904000Y-148288000D01*
X94654000Y-144288000D02*
X90154000Y-144288000D01*
X95904000Y-148288000D02*
X95904000Y-146788000D01*
X94573600Y-90186200D02*
G75*
G02X92573600Y-90186200I-1000000J0D01*
G01*
X92573600Y-90186200D02*
X87513600Y-90186200D01*
X87513600Y-90186200D02*
X87513600Y-141106200D01*
X87513600Y-141106200D02*
X99633600Y-141106200D01*
X99633600Y-141106200D02*
X99633600Y-90186200D01*
X99633600Y-90186200D02*
X94573600Y-90186200D01*
X67852800Y-115230600D02*
G75*
G02X65852800Y-115230600I-1000000J0D01*
G01*
X65852800Y-115230600D02*
X64602800Y-115230600D01*
X64602800Y-115230600D02*
X64602800Y-140750600D01*
X64602800Y-140750600D02*
X69102800Y-140750600D01*
X69102800Y-140750600D02*
X69102800Y-115230600D01*
X69102800Y-115230600D02*
X67852800Y-115230600D01*
X42459400Y-141080800D02*
G75*
G02X44459400Y-141080800I1000000J0D01*
G01*
X44459400Y-141080800D02*
X49519400Y-141080800D01*
X49519400Y-141080800D02*
X49519400Y-105400800D01*
X49519400Y-105400800D02*
X37399400Y-105400800D01*
X37399400Y-105400800D02*
X37399400Y-141080800D01*
X37399400Y-141080800D02*
X42459400Y-141080800D01*
X42510200Y-98510400D02*
G75*
G02X44510200Y-98510400I1000000J0D01*
G01*
X44510200Y-98510400D02*
X49570200Y-98510400D01*
X49570200Y-98510400D02*
X49570200Y-62830400D01*
X49570200Y-62830400D02*
X37450200Y-62830400D01*
X37450200Y-62830400D02*
X37450200Y-98510400D01*
X37450200Y-98510400D02*
X42510200Y-98510400D01*
X67199000Y-98485000D02*
G75*
G02X69199000Y-98485000I1000000J0D01*
G01*
X69199000Y-98485000D02*
X74259000Y-98485000D01*
X74259000Y-98485000D02*
X74259000Y-67885000D01*
X74259000Y-67885000D02*
X62139000Y-67885000D01*
X62139000Y-67885000D02*
X62139000Y-98485000D01*
X62139000Y-98485000D02*
X67199000Y-98485000D01*
X123732800Y-89830600D02*
G75*
G02X121732800Y-89830600I-1000000J0D01*
G01*
X121732800Y-89830600D02*
X116672800Y-89830600D01*
X116672800Y-89830600D02*
X116672800Y-140750600D01*
X116672800Y-140750600D02*
X128792800Y-140750600D01*
X128792800Y-140750600D02*
X128792800Y-89830600D01*
X128792800Y-89830600D02*
X123732800Y-89830600D01*
X72862200Y-109234600D02*
X72862200Y-102984600D01*
X77912200Y-109234600D02*
X77912200Y-102984600D01*
X77912200Y-109234600D02*
G75*
G02X72862200Y-109234600I-2525000J0D01*
G01*
X77912200Y-102984600D02*
G75*
G03X72862200Y-102984600I-2525000J0D01*
G01*
D12*
X140905743Y-94420666D02*
X140953362Y-94468285D01*
X141000981Y-94611142D01*
X141000981Y-94706380D01*
X140953362Y-94849238D01*
X140858124Y-94944476D01*
X140762886Y-94992095D01*
X140572410Y-95039714D01*
X140429552Y-95039714D01*
X140239076Y-94992095D01*
X140143838Y-94944476D01*
X140048600Y-94849238D01*
X140000981Y-94706380D01*
X140000981Y-94611142D01*
X140048600Y-94468285D01*
X140096219Y-94420666D01*
X140429552Y-93849238D02*
X140381933Y-93944476D01*
X140334314Y-93992095D01*
X140239076Y-94039714D01*
X140191457Y-94039714D01*
X140096219Y-93992095D01*
X140048600Y-93944476D01*
X140000981Y-93849238D01*
X140000981Y-93658761D01*
X140048600Y-93563523D01*
X140096219Y-93515904D01*
X140191457Y-93468285D01*
X140239076Y-93468285D01*
X140334314Y-93515904D01*
X140381933Y-93563523D01*
X140429552Y-93658761D01*
X140429552Y-93849238D01*
X140477171Y-93944476D01*
X140524790Y-93992095D01*
X140620029Y-94039714D01*
X140810505Y-94039714D01*
X140905743Y-93992095D01*
X140953362Y-93944476D01*
X141000981Y-93849238D01*
X141000981Y-93658761D01*
X140953362Y-93563523D01*
X140905743Y-93515904D01*
X140810505Y-93468285D01*
X140620029Y-93468285D01*
X140524790Y-93515904D01*
X140477171Y-93563523D01*
X140429552Y-93658761D01*
X161870915Y-89298343D02*
X161823296Y-89345962D01*
X161680439Y-89393581D01*
X161585201Y-89393581D01*
X161442343Y-89345962D01*
X161347105Y-89250724D01*
X161299486Y-89155486D01*
X161251867Y-88965010D01*
X161251867Y-88822152D01*
X161299486Y-88631676D01*
X161347105Y-88536438D01*
X161442343Y-88441200D01*
X161585201Y-88393581D01*
X161680439Y-88393581D01*
X161823296Y-88441200D01*
X161870915Y-88488819D01*
X162489962Y-88393581D02*
X162680439Y-88393581D01*
X162775677Y-88441200D01*
X162870915Y-88536438D01*
X162918534Y-88726914D01*
X162918534Y-89060248D01*
X162870915Y-89250724D01*
X162775677Y-89345962D01*
X162680439Y-89393581D01*
X162489962Y-89393581D01*
X162394724Y-89345962D01*
X162299486Y-89250724D01*
X162251867Y-89060248D01*
X162251867Y-88726914D01*
X162299486Y-88536438D01*
X162394724Y-88441200D01*
X162489962Y-88393581D01*
X163347105Y-89393581D02*
X163347105Y-88393581D01*
X163918534Y-89393581D01*
X163918534Y-88393581D01*
X164918534Y-89393581D02*
X164347105Y-89393581D01*
X164632819Y-89393581D02*
X164632819Y-88393581D01*
X164537581Y-88536438D01*
X164442343Y-88631676D01*
X164347105Y-88679295D01*
X79633914Y-51480981D02*
X79633914Y-50480981D01*
X79872009Y-50480981D01*
X80014867Y-50528600D01*
X80110105Y-50623838D01*
X80157724Y-50719076D01*
X80205343Y-50909552D01*
X80205343Y-51052410D01*
X80157724Y-51242886D01*
X80110105Y-51338124D01*
X80014867Y-51433362D01*
X79872009Y-51480981D01*
X79633914Y-51480981D01*
X80586295Y-51433362D02*
X80729152Y-51480981D01*
X80967248Y-51480981D01*
X81062486Y-51433362D01*
X81110105Y-51385743D01*
X81157724Y-51290505D01*
X81157724Y-51195267D01*
X81110105Y-51100029D01*
X81062486Y-51052410D01*
X80967248Y-51004790D01*
X80776771Y-50957171D01*
X80681533Y-50909552D01*
X80633914Y-50861933D01*
X80586295Y-50766695D01*
X80586295Y-50671457D01*
X80633914Y-50576219D01*
X80681533Y-50528600D01*
X80776771Y-50480981D01*
X81014867Y-50480981D01*
X81157724Y-50528600D01*
X82110105Y-51480981D02*
X81538676Y-51480981D01*
X81824390Y-51480981D02*
X81824390Y-50480981D01*
X81729152Y-50623838D01*
X81633914Y-50719076D01*
X81538676Y-50766695D01*
X152373105Y-119063581D02*
X152373105Y-118063581D01*
X152754058Y-118063581D01*
X152849296Y-118111200D01*
X152896915Y-118158819D01*
X152944534Y-118254057D01*
X152944534Y-118396914D01*
X152896915Y-118492152D01*
X152849296Y-118539771D01*
X152754058Y-118587390D01*
X152373105Y-118587390D01*
X153896915Y-119063581D02*
X153325486Y-119063581D01*
X153611200Y-119063581D02*
X153611200Y-118063581D01*
X153515962Y-118206438D01*
X153420724Y-118301676D01*
X153325486Y-118349295D01*
X148283705Y-119114381D02*
X148283705Y-118114381D01*
X148664658Y-118114381D01*
X148759896Y-118162000D01*
X148807515Y-118209619D01*
X148855134Y-118304857D01*
X148855134Y-118447714D01*
X148807515Y-118542952D01*
X148759896Y-118590571D01*
X148664658Y-118638190D01*
X148283705Y-118638190D01*
X149236086Y-118209619D02*
X149283705Y-118162000D01*
X149378943Y-118114381D01*
X149617039Y-118114381D01*
X149712277Y-118162000D01*
X149759896Y-118209619D01*
X149807515Y-118304857D01*
X149807515Y-118400095D01*
X149759896Y-118542952D01*
X149188467Y-119114381D01*
X149807515Y-119114381D01*
X37136781Y-53925695D02*
X36136781Y-53925695D01*
X36136781Y-53544742D01*
X36184400Y-53449504D01*
X36232019Y-53401885D01*
X36327257Y-53354266D01*
X36470114Y-53354266D01*
X36565352Y-53401885D01*
X36612971Y-53449504D01*
X36660590Y-53544742D01*
X36660590Y-53925695D01*
X36136781Y-53020933D02*
X36136781Y-52401885D01*
X36517733Y-52735219D01*
X36517733Y-52592361D01*
X36565352Y-52497123D01*
X36612971Y-52449504D01*
X36708210Y-52401885D01*
X36946305Y-52401885D01*
X37041543Y-52449504D01*
X37089162Y-52497123D01*
X37136781Y-52592361D01*
X37136781Y-52878076D01*
X37089162Y-52973314D01*
X37041543Y-53020933D01*
X99087381Y-150217095D02*
X98087381Y-150217095D01*
X98087381Y-149836142D01*
X98135000Y-149740904D01*
X98182619Y-149693285D01*
X98277857Y-149645666D01*
X98420714Y-149645666D01*
X98515952Y-149693285D01*
X98563571Y-149740904D01*
X98611190Y-149836142D01*
X98611190Y-150217095D01*
X98420714Y-148788523D02*
X99087381Y-148788523D01*
X98039762Y-149026619D02*
X98754048Y-149264714D01*
X98754048Y-148645666D01*
X75389181Y-149734495D02*
X74389181Y-149734495D01*
X74389181Y-149353542D01*
X74436800Y-149258304D01*
X74484419Y-149210685D01*
X74579657Y-149163066D01*
X74722514Y-149163066D01*
X74817752Y-149210685D01*
X74865371Y-149258304D01*
X74912990Y-149353542D01*
X74912990Y-149734495D01*
X74389181Y-148258304D02*
X74389181Y-148734495D01*
X74865371Y-148782114D01*
X74817752Y-148734495D01*
X74770133Y-148639257D01*
X74770133Y-148401161D01*
X74817752Y-148305923D01*
X74865371Y-148258304D01*
X74960610Y-148210685D01*
X75198705Y-148210685D01*
X75293943Y-148258304D01*
X75341562Y-148305923D01*
X75389181Y-148401161D01*
X75389181Y-148639257D01*
X75341562Y-148734495D01*
X75293943Y-148782114D01*
X75084381Y-114834895D02*
X74084381Y-114834895D01*
X74084381Y-114453942D01*
X74132000Y-114358704D01*
X74179619Y-114311085D01*
X74274857Y-114263466D01*
X74417714Y-114263466D01*
X74512952Y-114311085D01*
X74560571Y-114358704D01*
X74608190Y-114453942D01*
X74608190Y-114834895D01*
X74084381Y-113406323D02*
X74084381Y-113596800D01*
X74132000Y-113692038D01*
X74179619Y-113739657D01*
X74322476Y-113834895D01*
X74512952Y-113882514D01*
X74893905Y-113882514D01*
X74989143Y-113834895D01*
X75036762Y-113787276D01*
X75084381Y-113692038D01*
X75084381Y-113501561D01*
X75036762Y-113406323D01*
X74989143Y-113358704D01*
X74893905Y-113311085D01*
X74655810Y-113311085D01*
X74560571Y-113358704D01*
X74512952Y-113406323D01*
X74465333Y-113501561D01*
X74465333Y-113692038D01*
X74512952Y-113787276D01*
X74560571Y-113834895D01*
X74655810Y-113882514D01*
X136726705Y-143334181D02*
X136726705Y-142334181D01*
X137107658Y-142334181D01*
X137202896Y-142381800D01*
X137250515Y-142429419D01*
X137298134Y-142524657D01*
X137298134Y-142667514D01*
X137250515Y-142762752D01*
X137202896Y-142810371D01*
X137107658Y-142857990D01*
X136726705Y-142857990D01*
X137631467Y-142334181D02*
X138298134Y-142334181D01*
X137869562Y-143334181D01*
X59155105Y-102389381D02*
X59155105Y-101389381D01*
X59536058Y-101389381D01*
X59631296Y-101437000D01*
X59678915Y-101484619D01*
X59726534Y-101579857D01*
X59726534Y-101722714D01*
X59678915Y-101817952D01*
X59631296Y-101865571D01*
X59536058Y-101913190D01*
X59155105Y-101913190D01*
X60297962Y-101817952D02*
X60202724Y-101770333D01*
X60155105Y-101722714D01*
X60107486Y-101627476D01*
X60107486Y-101579857D01*
X60155105Y-101484619D01*
X60202724Y-101437000D01*
X60297962Y-101389381D01*
X60488439Y-101389381D01*
X60583677Y-101437000D01*
X60631296Y-101484619D01*
X60678915Y-101579857D01*
X60678915Y-101627476D01*
X60631296Y-101722714D01*
X60583677Y-101770333D01*
X60488439Y-101817952D01*
X60297962Y-101817952D01*
X60202724Y-101865571D01*
X60155105Y-101913190D01*
X60107486Y-102008429D01*
X60107486Y-102198905D01*
X60155105Y-102294143D01*
X60202724Y-102341762D01*
X60297962Y-102389381D01*
X60488439Y-102389381D01*
X60583677Y-102341762D01*
X60631296Y-102294143D01*
X60678915Y-102198905D01*
X60678915Y-102008429D01*
X60631296Y-101913190D01*
X60583677Y-101865571D01*
X60488439Y-101817952D01*
X142597581Y-151106095D02*
X141597581Y-151106095D01*
X141597581Y-150725142D01*
X141645200Y-150629904D01*
X141692819Y-150582285D01*
X141788057Y-150534666D01*
X141930914Y-150534666D01*
X142026152Y-150582285D01*
X142073771Y-150629904D01*
X142121390Y-150725142D01*
X142121390Y-151106095D01*
X142597581Y-150058476D02*
X142597581Y-149868000D01*
X142549962Y-149772761D01*
X142502343Y-149725142D01*
X142359486Y-149629904D01*
X142169010Y-149582285D01*
X141788057Y-149582285D01*
X141692819Y-149629904D01*
X141645200Y-149677523D01*
X141597581Y-149772761D01*
X141597581Y-149963238D01*
X141645200Y-150058476D01*
X141692819Y-150106095D01*
X141788057Y-150153714D01*
X142026152Y-150153714D01*
X142121390Y-150106095D01*
X142169010Y-150058476D01*
X142216629Y-149963238D01*
X142216629Y-149772761D01*
X142169010Y-149677523D01*
X142121390Y-149629904D01*
X142026152Y-149582285D01*
X164190514Y-146241581D02*
X164190514Y-145241581D01*
X164571467Y-145241581D01*
X164666705Y-145289200D01*
X164714324Y-145336819D01*
X164761943Y-145432057D01*
X164761943Y-145574914D01*
X164714324Y-145670152D01*
X164666705Y-145717771D01*
X164571467Y-145765390D01*
X164190514Y-145765390D01*
X165714324Y-146241581D02*
X165142895Y-146241581D01*
X165428609Y-146241581D02*
X165428609Y-145241581D01*
X165333371Y-145384438D01*
X165238133Y-145479676D01*
X165142895Y-145527295D01*
X166333371Y-145241581D02*
X166428610Y-145241581D01*
X166523848Y-145289200D01*
X166571467Y-145336819D01*
X166619086Y-145432057D01*
X166666705Y-145622533D01*
X166666705Y-145860629D01*
X166619086Y-146051105D01*
X166571467Y-146146343D01*
X166523848Y-146193962D01*
X166428610Y-146241581D01*
X166333371Y-146241581D01*
X166238133Y-146193962D01*
X166190514Y-146146343D01*
X166142895Y-146051105D01*
X166095276Y-145860629D01*
X166095276Y-145622533D01*
X166142895Y-145432057D01*
X166190514Y-145336819D01*
X166238133Y-145289200D01*
X166333371Y-145241581D01*
X163987314Y-121654381D02*
X163987314Y-120654381D01*
X164368267Y-120654381D01*
X164463505Y-120702000D01*
X164511124Y-120749619D01*
X164558743Y-120844857D01*
X164558743Y-120987714D01*
X164511124Y-121082952D01*
X164463505Y-121130571D01*
X164368267Y-121178190D01*
X163987314Y-121178190D01*
X165511124Y-121654381D02*
X164939695Y-121654381D01*
X165225409Y-121654381D02*
X165225409Y-120654381D01*
X165130171Y-120797238D01*
X165034933Y-120892476D01*
X164939695Y-120940095D01*
X166463505Y-121654381D02*
X165892076Y-121654381D01*
X166177790Y-121654381D02*
X166177790Y-120654381D01*
X166082552Y-120797238D01*
X165987314Y-120892476D01*
X165892076Y-120940095D01*
X131146562Y-144764819D02*
X131051324Y-144717200D01*
X130956086Y-144621962D01*
X130813229Y-144479105D01*
X130717990Y-144431486D01*
X130622752Y-144431486D01*
X130670371Y-144669581D02*
X130575133Y-144621962D01*
X130479895Y-144526724D01*
X130432276Y-144336248D01*
X130432276Y-144002914D01*
X130479895Y-143812438D01*
X130575133Y-143717200D01*
X130670371Y-143669581D01*
X130860848Y-143669581D01*
X130956086Y-143717200D01*
X131051324Y-143812438D01*
X131098943Y-144002914D01*
X131098943Y-144336248D01*
X131051324Y-144526724D01*
X130956086Y-144621962D01*
X130860848Y-144669581D01*
X130670371Y-144669581D01*
X132051324Y-144669581D02*
X131479895Y-144669581D01*
X131765609Y-144669581D02*
X131765609Y-143669581D01*
X131670371Y-143812438D01*
X131575133Y-143907676D01*
X131479895Y-143955295D01*
X69835162Y-51593981D02*
X69501828Y-51117790D01*
X69263733Y-51593981D02*
X69263733Y-50593981D01*
X69644686Y-50593981D01*
X69739924Y-50641600D01*
X69787543Y-50689219D01*
X69835162Y-50784457D01*
X69835162Y-50927314D01*
X69787543Y-51022552D01*
X69739924Y-51070171D01*
X69644686Y-51117790D01*
X69263733Y-51117790D01*
X70120876Y-50593981D02*
X70454209Y-51593981D01*
X70787543Y-50593981D01*
X71644686Y-51593981D02*
X71073257Y-51593981D01*
X71358971Y-51593981D02*
X71358971Y-50593981D01*
X71263733Y-50736838D01*
X71168495Y-50832076D01*
X71073257Y-50879695D01*
X91070667Y-143692762D02*
X91213524Y-143740381D01*
X91451620Y-143740381D01*
X91546858Y-143692762D01*
X91594477Y-143645143D01*
X91642096Y-143549905D01*
X91642096Y-143454667D01*
X91594477Y-143359429D01*
X91546858Y-143311810D01*
X91451620Y-143264190D01*
X91261143Y-143216571D01*
X91165905Y-143168952D01*
X91118286Y-143121333D01*
X91070667Y-143026095D01*
X91070667Y-142930857D01*
X91118286Y-142835619D01*
X91165905Y-142788000D01*
X91261143Y-142740381D01*
X91499239Y-142740381D01*
X91642096Y-142788000D01*
X91975429Y-142740381D02*
X92213524Y-143740381D01*
X92404001Y-143026095D01*
X92594477Y-143740381D01*
X92832572Y-142740381D01*
X93737334Y-143740381D02*
X93165905Y-143740381D01*
X93451619Y-143740381D02*
X93451619Y-142740381D01*
X93356381Y-142883238D01*
X93261143Y-142978476D01*
X93165905Y-143026095D01*
X92811695Y-88638581D02*
X92811695Y-89448105D01*
X92859314Y-89543343D01*
X92906933Y-89590962D01*
X93002171Y-89638581D01*
X93192648Y-89638581D01*
X93287886Y-89590962D01*
X93335505Y-89543343D01*
X93383124Y-89448105D01*
X93383124Y-88638581D01*
X94383124Y-89638581D02*
X93811695Y-89638581D01*
X94097409Y-89638581D02*
X94097409Y-88638581D01*
X94002171Y-88781438D01*
X93906933Y-88876676D01*
X93811695Y-88924295D01*
X66090895Y-113682981D02*
X66090895Y-114492505D01*
X66138514Y-114587743D01*
X66186133Y-114635362D01*
X66281371Y-114682981D01*
X66471848Y-114682981D01*
X66567086Y-114635362D01*
X66614705Y-114587743D01*
X66662324Y-114492505D01*
X66662324Y-113682981D01*
X67090895Y-113778219D02*
X67138514Y-113730600D01*
X67233752Y-113682981D01*
X67471848Y-113682981D01*
X67567086Y-113730600D01*
X67614705Y-113778219D01*
X67662324Y-113873457D01*
X67662324Y-113968695D01*
X67614705Y-114111552D01*
X67043276Y-114682981D01*
X67662324Y-114682981D01*
X42697495Y-141533181D02*
X42697495Y-142342705D01*
X42745114Y-142437943D01*
X42792733Y-142485562D01*
X42887971Y-142533181D01*
X43078448Y-142533181D01*
X43173686Y-142485562D01*
X43221305Y-142437943D01*
X43268924Y-142342705D01*
X43268924Y-141533181D01*
X43649876Y-141533181D02*
X44268924Y-141533181D01*
X43935590Y-141914133D01*
X44078448Y-141914133D01*
X44173686Y-141961752D01*
X44221305Y-142009371D01*
X44268924Y-142104610D01*
X44268924Y-142342705D01*
X44221305Y-142437943D01*
X44173686Y-142485562D01*
X44078448Y-142533181D01*
X43792733Y-142533181D01*
X43697495Y-142485562D01*
X43649876Y-142437943D01*
X42748295Y-98962781D02*
X42748295Y-99772305D01*
X42795914Y-99867543D01*
X42843533Y-99915162D01*
X42938771Y-99962781D01*
X43129248Y-99962781D01*
X43224486Y-99915162D01*
X43272105Y-99867543D01*
X43319724Y-99772305D01*
X43319724Y-98962781D01*
X44224486Y-99296114D02*
X44224486Y-99962781D01*
X43986390Y-98915162D02*
X43748295Y-99629448D01*
X44367343Y-99629448D01*
X67437095Y-98937381D02*
X67437095Y-99746905D01*
X67484714Y-99842143D01*
X67532333Y-99889762D01*
X67627571Y-99937381D01*
X67818048Y-99937381D01*
X67913286Y-99889762D01*
X67960905Y-99842143D01*
X68008524Y-99746905D01*
X68008524Y-98937381D01*
X68960905Y-98937381D02*
X68484714Y-98937381D01*
X68437095Y-99413571D01*
X68484714Y-99365952D01*
X68579952Y-99318333D01*
X68818048Y-99318333D01*
X68913286Y-99365952D01*
X68960905Y-99413571D01*
X69008524Y-99508810D01*
X69008524Y-99746905D01*
X68960905Y-99842143D01*
X68913286Y-99889762D01*
X68818048Y-99937381D01*
X68579952Y-99937381D01*
X68484714Y-99889762D01*
X68437095Y-99842143D01*
X121970895Y-88282981D02*
X121970895Y-89092505D01*
X122018514Y-89187743D01*
X122066133Y-89235362D01*
X122161371Y-89282981D01*
X122351848Y-89282981D01*
X122447086Y-89235362D01*
X122494705Y-89187743D01*
X122542324Y-89092505D01*
X122542324Y-88282981D01*
X123447086Y-88282981D02*
X123256609Y-88282981D01*
X123161371Y-88330600D01*
X123113752Y-88378219D01*
X123018514Y-88521076D01*
X122970895Y-88711552D01*
X122970895Y-89092505D01*
X123018514Y-89187743D01*
X123066133Y-89235362D01*
X123161371Y-89282981D01*
X123351848Y-89282981D01*
X123447086Y-89235362D01*
X123494705Y-89187743D01*
X123542324Y-89092505D01*
X123542324Y-88854410D01*
X123494705Y-88759171D01*
X123447086Y-88711552D01*
X123351848Y-88663933D01*
X123161371Y-88663933D01*
X123066133Y-88711552D01*
X123018514Y-88759171D01*
X122970895Y-88854410D01*
X71838390Y-106585791D02*
X72314581Y-106585791D01*
X71314581Y-106919124D02*
X71838390Y-106585791D01*
X71314581Y-106252457D01*
X72314581Y-105395314D02*
X72314581Y-105966743D01*
X72314581Y-105681029D02*
X71314581Y-105681029D01*
X71457438Y-105776267D01*
X71552676Y-105871505D01*
X71600295Y-105966743D01*
M02*
