G04 #@! TF.FileFunction,Legend,Bot*
%FSLAX46Y46*%
G04 Gerber Fmt 4.6, Leading zero omitted, Abs format (unit mm)*
G04 Created by KiCad (PCBNEW 4.0.4-stable) date 01/25/23 12:04:28*
%MOMM*%
%LPD*%
G01*
G04 APERTURE LIST*
%ADD10C,0.100000*%
%ADD11C,0.120000*%
%ADD12C,0.150000*%
G04 APERTURE END LIST*
D10*
D11*
X99325800Y-127820800D02*
X99325800Y-128820800D01*
X97625800Y-128820800D02*
X97625800Y-127820800D01*
X69426200Y-107760400D02*
X70426200Y-107760400D01*
X70426200Y-109460400D02*
X69426200Y-109460400D01*
X97346400Y-93260800D02*
X97346400Y-92260800D01*
X99046400Y-92260800D02*
X99046400Y-93260800D01*
X69451600Y-102807400D02*
X70451600Y-102807400D01*
X70451600Y-104507400D02*
X69451600Y-104507400D01*
X69943600Y-114286400D02*
X68943600Y-114286400D01*
X68943600Y-112586400D02*
X69943600Y-112586400D01*
X48805200Y-137904600D02*
X48805200Y-138904600D01*
X47105200Y-138904600D02*
X47105200Y-137904600D01*
X91000200Y-100011600D02*
X90000200Y-100011600D01*
X90000200Y-98311600D02*
X91000200Y-98311600D01*
X64426200Y-95435800D02*
X64426200Y-96435800D01*
X62726200Y-96435800D02*
X62726200Y-95435800D01*
X126302400Y-92905200D02*
X126302400Y-91905200D01*
X128002400Y-91905200D02*
X128002400Y-92905200D01*
X91176400Y-100593000D02*
X89976400Y-100593000D01*
X89976400Y-102353000D02*
X91176400Y-102353000D01*
X126253800Y-146846400D02*
X125053800Y-146846400D01*
X125053800Y-148606400D02*
X126253800Y-148606400D01*
X60715600Y-102200600D02*
X61915600Y-102200600D01*
X61915600Y-100440600D02*
X60715600Y-100440600D01*
X39788200Y-95512000D02*
X39788200Y-96512000D01*
X38088200Y-96512000D02*
X38088200Y-95512000D01*
D12*
X98909143Y-131583134D02*
X98956762Y-131535515D01*
X99004381Y-131392658D01*
X99004381Y-131297420D01*
X98956762Y-131154562D01*
X98861524Y-131059324D01*
X98766286Y-131011705D01*
X98575810Y-130964086D01*
X98432952Y-130964086D01*
X98242476Y-131011705D01*
X98147238Y-131059324D01*
X98052000Y-131154562D01*
X98004381Y-131297420D01*
X98004381Y-131392658D01*
X98052000Y-131535515D01*
X98099619Y-131583134D01*
X99004381Y-132535515D02*
X99004381Y-131964086D01*
X99004381Y-132249800D02*
X98004381Y-132249800D01*
X98147238Y-132154562D01*
X98242476Y-132059324D01*
X98290095Y-131964086D01*
X66867066Y-108916743D02*
X66914685Y-108964362D01*
X67057542Y-109011981D01*
X67152780Y-109011981D01*
X67295638Y-108964362D01*
X67390876Y-108869124D01*
X67438495Y-108773886D01*
X67486114Y-108583410D01*
X67486114Y-108440552D01*
X67438495Y-108250076D01*
X67390876Y-108154838D01*
X67295638Y-108059600D01*
X67152780Y-108011981D01*
X67057542Y-108011981D01*
X66914685Y-108059600D01*
X66867066Y-108107219D01*
X66486114Y-108107219D02*
X66438495Y-108059600D01*
X66343257Y-108011981D01*
X66105161Y-108011981D01*
X66009923Y-108059600D01*
X65962304Y-108107219D01*
X65914685Y-108202457D01*
X65914685Y-108297695D01*
X65962304Y-108440552D01*
X66533733Y-109011981D01*
X65914685Y-109011981D01*
X98731343Y-96073934D02*
X98778962Y-96026315D01*
X98826581Y-95883458D01*
X98826581Y-95788220D01*
X98778962Y-95645362D01*
X98683724Y-95550124D01*
X98588486Y-95502505D01*
X98398010Y-95454886D01*
X98255152Y-95454886D01*
X98064676Y-95502505D01*
X97969438Y-95550124D01*
X97874200Y-95645362D01*
X97826581Y-95788220D01*
X97826581Y-95883458D01*
X97874200Y-96026315D01*
X97921819Y-96073934D01*
X97826581Y-96407267D02*
X97826581Y-97026315D01*
X98207533Y-96692981D01*
X98207533Y-96835839D01*
X98255152Y-96931077D01*
X98302771Y-96978696D01*
X98398010Y-97026315D01*
X98636105Y-97026315D01*
X98731343Y-96978696D01*
X98778962Y-96931077D01*
X98826581Y-96835839D01*
X98826581Y-96550124D01*
X98778962Y-96454886D01*
X98731343Y-96407267D01*
X66867066Y-103989143D02*
X66914685Y-104036762D01*
X67057542Y-104084381D01*
X67152780Y-104084381D01*
X67295638Y-104036762D01*
X67390876Y-103941524D01*
X67438495Y-103846286D01*
X67486114Y-103655810D01*
X67486114Y-103512952D01*
X67438495Y-103322476D01*
X67390876Y-103227238D01*
X67295638Y-103132000D01*
X67152780Y-103084381D01*
X67057542Y-103084381D01*
X66914685Y-103132000D01*
X66867066Y-103179619D01*
X66009923Y-103417714D02*
X66009923Y-104084381D01*
X66248019Y-103036762D02*
X66486114Y-103751048D01*
X65867066Y-103751048D01*
X69610266Y-115543543D02*
X69657885Y-115591162D01*
X69800742Y-115638781D01*
X69895980Y-115638781D01*
X70038838Y-115591162D01*
X70134076Y-115495924D01*
X70181695Y-115400686D01*
X70229314Y-115210210D01*
X70229314Y-115067352D01*
X70181695Y-114876876D01*
X70134076Y-114781638D01*
X70038838Y-114686400D01*
X69895980Y-114638781D01*
X69800742Y-114638781D01*
X69657885Y-114686400D01*
X69610266Y-114734019D01*
X68705504Y-114638781D02*
X69181695Y-114638781D01*
X69229314Y-115114971D01*
X69181695Y-115067352D01*
X69086457Y-115019733D01*
X68848361Y-115019733D01*
X68753123Y-115067352D01*
X68705504Y-115114971D01*
X68657885Y-115210210D01*
X68657885Y-115448305D01*
X68705504Y-115543543D01*
X68753123Y-115591162D01*
X68848361Y-115638781D01*
X69086457Y-115638781D01*
X69181695Y-115591162D01*
X69229314Y-115543543D01*
X50062343Y-138237934D02*
X50109962Y-138190315D01*
X50157581Y-138047458D01*
X50157581Y-137952220D01*
X50109962Y-137809362D01*
X50014724Y-137714124D01*
X49919486Y-137666505D01*
X49729010Y-137618886D01*
X49586152Y-137618886D01*
X49395676Y-137666505D01*
X49300438Y-137714124D01*
X49205200Y-137809362D01*
X49157581Y-137952220D01*
X49157581Y-138047458D01*
X49205200Y-138190315D01*
X49252819Y-138237934D01*
X49157581Y-139095077D02*
X49157581Y-138904600D01*
X49205200Y-138809362D01*
X49252819Y-138761743D01*
X49395676Y-138666505D01*
X49586152Y-138618886D01*
X49967105Y-138618886D01*
X50062343Y-138666505D01*
X50109962Y-138714124D01*
X50157581Y-138809362D01*
X50157581Y-138999839D01*
X50109962Y-139095077D01*
X50062343Y-139142696D01*
X49967105Y-139190315D01*
X49729010Y-139190315D01*
X49633771Y-139142696D01*
X49586152Y-139095077D01*
X49538533Y-138999839D01*
X49538533Y-138809362D01*
X49586152Y-138714124D01*
X49633771Y-138666505D01*
X49729010Y-138618886D01*
X93892666Y-99518743D02*
X93940285Y-99566362D01*
X94083142Y-99613981D01*
X94178380Y-99613981D01*
X94321238Y-99566362D01*
X94416476Y-99471124D01*
X94464095Y-99375886D01*
X94511714Y-99185410D01*
X94511714Y-99042552D01*
X94464095Y-98852076D01*
X94416476Y-98756838D01*
X94321238Y-98661600D01*
X94178380Y-98613981D01*
X94083142Y-98613981D01*
X93940285Y-98661600D01*
X93892666Y-98709219D01*
X93559333Y-98613981D02*
X92892666Y-98613981D01*
X93321238Y-99613981D01*
X65683343Y-95769134D02*
X65730962Y-95721515D01*
X65778581Y-95578658D01*
X65778581Y-95483420D01*
X65730962Y-95340562D01*
X65635724Y-95245324D01*
X65540486Y-95197705D01*
X65350010Y-95150086D01*
X65207152Y-95150086D01*
X65016676Y-95197705D01*
X64921438Y-95245324D01*
X64826200Y-95340562D01*
X64778581Y-95483420D01*
X64778581Y-95578658D01*
X64826200Y-95721515D01*
X64873819Y-95769134D01*
X65778581Y-96245324D02*
X65778581Y-96435800D01*
X65730962Y-96531039D01*
X65683343Y-96578658D01*
X65540486Y-96673896D01*
X65350010Y-96721515D01*
X64969057Y-96721515D01*
X64873819Y-96673896D01*
X64826200Y-96626277D01*
X64778581Y-96531039D01*
X64778581Y-96340562D01*
X64826200Y-96245324D01*
X64873819Y-96197705D01*
X64969057Y-96150086D01*
X65207152Y-96150086D01*
X65302390Y-96197705D01*
X65350010Y-96245324D01*
X65397629Y-96340562D01*
X65397629Y-96531039D01*
X65350010Y-96626277D01*
X65302390Y-96673896D01*
X65207152Y-96721515D01*
X125759543Y-91762343D02*
X125807162Y-91714724D01*
X125854781Y-91571867D01*
X125854781Y-91476629D01*
X125807162Y-91333771D01*
X125711924Y-91238533D01*
X125616686Y-91190914D01*
X125426210Y-91143295D01*
X125283352Y-91143295D01*
X125092876Y-91190914D01*
X124997638Y-91238533D01*
X124902400Y-91333771D01*
X124854781Y-91476629D01*
X124854781Y-91571867D01*
X124902400Y-91714724D01*
X124950019Y-91762343D01*
X125854781Y-92714724D02*
X125854781Y-92143295D01*
X125854781Y-92429009D02*
X124854781Y-92429009D01*
X124997638Y-92333771D01*
X125092876Y-92238533D01*
X125140495Y-92143295D01*
X124854781Y-93333771D02*
X124854781Y-93429010D01*
X124902400Y-93524248D01*
X124950019Y-93571867D01*
X125045257Y-93619486D01*
X125235733Y-93667105D01*
X125473829Y-93667105D01*
X125664305Y-93619486D01*
X125759543Y-93571867D01*
X125807162Y-93524248D01*
X125854781Y-93429010D01*
X125854781Y-93333771D01*
X125807162Y-93238533D01*
X125759543Y-93190914D01*
X125664305Y-93143295D01*
X125473829Y-93095676D01*
X125235733Y-93095676D01*
X125045257Y-93143295D01*
X124950019Y-93190914D01*
X124902400Y-93238533D01*
X124854781Y-93333771D01*
X93994266Y-101950781D02*
X94327600Y-101474590D01*
X94565695Y-101950781D02*
X94565695Y-100950781D01*
X94184742Y-100950781D01*
X94089504Y-100998400D01*
X94041885Y-101046019D01*
X93994266Y-101141257D01*
X93994266Y-101284114D01*
X94041885Y-101379352D01*
X94089504Y-101426971D01*
X94184742Y-101474590D01*
X94565695Y-101474590D01*
X93041885Y-101950781D02*
X93613314Y-101950781D01*
X93327600Y-101950781D02*
X93327600Y-100950781D01*
X93422838Y-101093638D01*
X93518076Y-101188876D01*
X93613314Y-101236495D01*
X125820466Y-149878781D02*
X126153800Y-149402590D01*
X126391895Y-149878781D02*
X126391895Y-148878781D01*
X126010942Y-148878781D01*
X125915704Y-148926400D01*
X125868085Y-148974019D01*
X125820466Y-149069257D01*
X125820466Y-149212114D01*
X125868085Y-149307352D01*
X125915704Y-149354971D01*
X126010942Y-149402590D01*
X126391895Y-149402590D01*
X125439514Y-148974019D02*
X125391895Y-148926400D01*
X125296657Y-148878781D01*
X125058561Y-148878781D01*
X124963323Y-148926400D01*
X124915704Y-148974019D01*
X124868085Y-149069257D01*
X124868085Y-149164495D01*
X124915704Y-149307352D01*
X125487133Y-149878781D01*
X124868085Y-149878781D01*
X61482266Y-100072981D02*
X61815600Y-99596790D01*
X62053695Y-100072981D02*
X62053695Y-99072981D01*
X61672742Y-99072981D01*
X61577504Y-99120600D01*
X61529885Y-99168219D01*
X61482266Y-99263457D01*
X61482266Y-99406314D01*
X61529885Y-99501552D01*
X61577504Y-99549171D01*
X61672742Y-99596790D01*
X62053695Y-99596790D01*
X61148933Y-99072981D02*
X60529885Y-99072981D01*
X60863219Y-99453933D01*
X60720361Y-99453933D01*
X60625123Y-99501552D01*
X60577504Y-99549171D01*
X60529885Y-99644410D01*
X60529885Y-99882505D01*
X60577504Y-99977743D01*
X60625123Y-100025362D01*
X60720361Y-100072981D01*
X61006076Y-100072981D01*
X61101314Y-100025362D01*
X61148933Y-99977743D01*
X41045343Y-95369143D02*
X41092962Y-95321524D01*
X41140581Y-95178667D01*
X41140581Y-95083429D01*
X41092962Y-94940571D01*
X40997724Y-94845333D01*
X40902486Y-94797714D01*
X40712010Y-94750095D01*
X40569152Y-94750095D01*
X40378676Y-94797714D01*
X40283438Y-94845333D01*
X40188200Y-94940571D01*
X40140581Y-95083429D01*
X40140581Y-95178667D01*
X40188200Y-95321524D01*
X40235819Y-95369143D01*
X41140581Y-96321524D02*
X41140581Y-95750095D01*
X41140581Y-96035809D02*
X40140581Y-96035809D01*
X40283438Y-95940571D01*
X40378676Y-95845333D01*
X40426295Y-95750095D01*
X41140581Y-97273905D02*
X41140581Y-96702476D01*
X41140581Y-96988190D02*
X40140581Y-96988190D01*
X40283438Y-96892952D01*
X40378676Y-96797714D01*
X40426295Y-96702476D01*
M02*
