M48
INCH,TZ
T1C0.016
T2C0.020
T3C0.024
T4C0.031
T5C0.039
T6C0.043
T7C0.047
T8C0.051
T9C0.098
%
G90
G05
T1
X11100Y-44030
X11140Y-42010
X11470Y-43020
X11580Y-55830
X11680Y-56380
X11790Y-53690
X11810Y-44030
X12160Y-45030
X12160Y-53930
X12470Y-46010
X14770Y-33830
X15960Y-36130
X16240Y-51510
X16250Y-50920
X16280Y-35250
X16400Y-50190
X16590Y-34280
X16920Y-33260
X17260Y-32270
X17570Y-31260
X17940Y-30260
X18290Y-29270
X18620Y-28220
X18960Y-27300
X20480Y-19640
X20900Y-50450
X20900Y-51460
X20970Y-36270
X21010Y-49590
X21130Y-46360
X21360Y-50530
X21410Y-46670
X21690Y-45560
X22700Y-38520
X23000Y-38260
X23390Y-22860
X23590Y-39240
X23790Y-58640
X24710Y-22110
X24710Y-43580
X25030Y-44880
X25040Y-22900
X25590Y-46410
X25860Y-49010
X26250Y-46390
X26330Y-58230
X26990Y-57890
X27520Y-58150
X27900Y-58150
X28790Y-53360
X29080Y-46350
X29150Y-54450
X29150Y-55880
X29550Y-54450
X29570Y-55900
X32010Y-55840
X32420Y-47550
X32870Y-48530
X33200Y-31750
X34320Y-32630
X34690Y-50830
X35090Y-56060
X35920Y-52540
X36140Y-51590
X36150Y-53210
X36150Y-54080
X36390Y-56140
X36440Y-55500
X36480Y-41360
X36540Y-51620
X36620Y-44090
X36940Y-51590
X37270Y-51390
X37650Y-23660
X41390Y-35900
X42140Y-35400
X43100Y-36310
X43470Y-35950
X43470Y-36740
X43820Y-35530
X43820Y-37110
X44350Y-43010
X44370Y-43780
X44640Y-57490
X46430Y-31820
X47050Y-51400
X47070Y-52400
X47080Y-50390
X47100Y-53400
X47740Y-33660
X47820Y-33230
X47830Y-40810
X47970Y-32880
X47980Y-56690
X47980Y-57880
X48000Y-32470
X48515Y-31815
X48580Y-53400
X48590Y-52400
X48630Y-51370
X48640Y-50340
T2
X14650Y-39930
X17910Y-53990
X20480Y-41270
X21470Y-39530
X25760Y-42230
X26120Y-44640
X26790Y-45890
X27300Y-39120
X30120Y-54020
X36886Y-39010
X37910Y-39060
X37910Y-51130
X38190Y-34890
X38570Y-37870
X39150Y-57570
X46530Y-38370
X46530Y-44930
X46550Y-39600
X46550Y-42720
X50210Y-37710
X53000Y-55730
X54960Y-33790
X56090Y-38430
T3
X51170Y-58180
X51670Y-58180
X52170Y-58180
T4
X14110Y-42020
X14110Y-43020
X14110Y-44020
X14110Y-45020
X14110Y-46020
X14110Y-47020
X14110Y-48020
X14110Y-49020
X14110Y-50020
X14110Y-51020
X14110Y-52020
X14110Y-53020
X14110Y-54020
X14110Y-55020
X14130Y-25260
X14130Y-26260
X14130Y-27260
X14130Y-28260
X14130Y-29260
X14130Y-30260
X14130Y-31260
X14130Y-32260
X14130Y-33260
X14130Y-34260
X14130Y-35260
X14130Y-36260
X14130Y-37260
X14130Y-38260
X20110Y-42020
X20110Y-43020
X20110Y-44020
X20110Y-45020
X20110Y-46020
X20110Y-47020
X20110Y-48020
X20110Y-49020
X20110Y-50020
X20110Y-51020
X20110Y-52020
X20110Y-53020
X20110Y-54020
X20110Y-55020
X20130Y-25260
X20130Y-26260
X20130Y-27260
X20130Y-28260
X20130Y-29260
X20130Y-30260
X20130Y-31260
X20130Y-32260
X20130Y-33260
X20130Y-34260
X20130Y-35260
X20130Y-36260
X20130Y-37260
X20130Y-38260
X23850Y-27250
X23850Y-28250
X23850Y-29250
X23850Y-30250
X23850Y-31250
X23850Y-32250
X23850Y-33250
X23850Y-34250
X23850Y-35250
X23850Y-36250
X23850Y-37250
X23850Y-38250
X24820Y-45890
X24820Y-46890
X24820Y-47890
X24820Y-48890
X24820Y-49890
X24820Y-50890
X24820Y-51890
X24820Y-52890
X24820Y-53890
X24820Y-54890
X27820Y-45890
X27820Y-46890
X27820Y-47890
X27820Y-48890
X27820Y-49890
X27820Y-50890
X27820Y-51890
X27820Y-52890
X27820Y-53890
X27820Y-54890
X29680Y-40811
X29680Y-42740
X29850Y-27250
X29850Y-28250
X29850Y-29250
X29850Y-30250
X29850Y-31250
X29850Y-32250
X29850Y-33250
X29850Y-34250
X29850Y-35250
X29850Y-36250
X29850Y-37250
X29850Y-38250
X33840Y-36030
X33840Y-37030
X33840Y-38030
X33840Y-39030
X33840Y-40030
X33840Y-41030
X33840Y-42030
X33840Y-43030
X33840Y-44030
X33840Y-45030
X33840Y-46030
X33840Y-47030
X33840Y-48030
X33840Y-49030
X33840Y-50030
X33840Y-51030
X33840Y-52030
X33840Y-53030
X33840Y-54030
X33840Y-55030
X39840Y-36030
X39840Y-37030
X39840Y-38030
X39840Y-39030
X39840Y-40030
X39840Y-41030
X39840Y-42030
X39840Y-43030
X39840Y-44030
X39840Y-45030
X39840Y-46030
X39840Y-47030
X39840Y-48030
X39840Y-49030
X39840Y-50030
X39840Y-51030
X39840Y-52030
X39840Y-53030
X39840Y-54030
X39840Y-55030
X45320Y-35890
X45320Y-36890
X45320Y-37890
X45320Y-38890
X45320Y-39890
X45320Y-40890
X45320Y-41890
X45320Y-42890
X45320Y-43890
X45320Y-44890
X45320Y-45890
X45320Y-46890
X45320Y-47890
X45320Y-48890
X45320Y-49890
X45320Y-50890
X45320Y-51890
X45320Y-52890
X45320Y-53890
X45320Y-54890
X51320Y-35890
X51320Y-36890
X51320Y-37890
X51320Y-38890
X51320Y-39890
X51320Y-40890
X51320Y-41890
X51320Y-42890
X51320Y-43890
X51320Y-44890
X51320Y-45890
X51320Y-46890
X51320Y-47890
X51320Y-48890
X51320Y-49890
X51320Y-50890
X51320Y-51890
X51320Y-52890
X51320Y-53890
X51320Y-54890
X57090Y-36616
X57090Y-37600
T5
X15360Y-20940
X16360Y-20940
X17360Y-20940
X18360Y-20940
X19360Y-20940
X20360Y-20940
X21360Y-20940
X22360Y-20940
X23580Y-41050
X23580Y-42050
X23580Y-43050
X30300Y-44920
X30420Y-58660
X31300Y-44920
X31420Y-58660
X32300Y-44920
X32420Y-58660
X39750Y-58850
X40750Y-58850
X41750Y-58850
X42750Y-58850
X43750Y-58850
X44750Y-58850
X45750Y-58850
X46750Y-58850
X54120Y-57170
X54120Y-58170
X56880Y-59200
X57880Y-59200
X58670Y-40800
X58670Y-41800
X58670Y-42800
X58670Y-43800
X58670Y-44800
X58670Y-45800
X58880Y-59200
X59880Y-59200
X60280Y-40780
X60280Y-41780
X60280Y-42780
X60280Y-43780
X60280Y-44780
X60280Y-45780
X60880Y-59200
X61880Y-59200
X62880Y-59200
X63880Y-59200
X65040Y-41800
X65040Y-42800
X65040Y-43800
X65040Y-44800
X65040Y-45800
X65040Y-46800
X65120Y-49480
X65120Y-50480
X65120Y-51480
X65120Y-52480
X65120Y-53480
X65120Y-54480
X65120Y-55480
X65120Y-56480
T6
X35100Y-57200
X35100Y-58972
X37659Y-57200
X37659Y-58972
T7
X35660Y-20900
X36660Y-20900
X37660Y-20900
X38660Y-20900
X39660Y-20900
X40660Y-20900
X41660Y-20900
X42660Y-20900
X43660Y-20900
X44660Y-20900
X45660Y-20900
X46660Y-20900
X47660Y-20900
X48660Y-20900
X49660Y-20900
X50660Y-20900
T8
X25760Y-21571
X25760Y-23540
X29697Y-22556
T9
X33495Y-20900
X33495Y-33105
X63022Y-33105
X63022Y-20900
T5
X60880Y-37674G85X60880Y-36886
G05
X62455Y-35430G85X61667Y-35430
G05
X63242Y-37674G85X63242Y-36886
G05
T0
M30
